<svg xmlns="http://www.w3.org/2000/svg" width="495" height="240" viewBox="0 0 495 240">
<rect width="495" height="240" rx="6" fill="#f6f8fa" stroke="#d0d7de" stroke-width="1"/>
<text x="20" y="28" font-family="-apple-system, BlinkMacSystemFont, 'Segoe UI', sans-serif" font-size="14" font-weight="600" fill="#24292f" text-anchor="start">Activity Radar</text>
<polygon points="150.00,108.50 168.55,121.97 161.46,143.78 138.54,143.78 131.45,121.97" fill="none" stroke="#8c959f" stroke-width="0.8" opacity="0.5"/>
<polygon points="150.00,89.00 187.09,115.95 172.92,159.55 127.08,159.55 112.91,115.95" fill="none" stroke="#8c959f" stroke-width="0.8" opacity="0.5"/>
<polygon points="150.00,69.50 205.64,109.92 184.39,175.33 115.61,175.33 94.36,109.92" fill="none" stroke="#8c959f" stroke-width="0.8" opacity="0.5"/>
<polygon points="150.00,50.00 224.18,103.90 195.85,191.10 104.15,191.10 75.82,103.90" fill="none" stroke="#8c959f" stroke-width="0.8" opacity="0.5"/>
<line x1="150.0" y1="128.0" x2="150.0" y2="50.0" stroke="#8c959f" stroke-width="0.8" opacity="0.5"/>
<line x1="150.0" y1="128.0" x2="224.18240827102198" y2="103.8966744387541" stroke="#8c959f" stroke-width="0.8" opacity="0.5"/>
<line x1="150.0" y1="128.0" x2="195.84724967881291" y2="191.1033255612459" stroke="#8c959f" stroke-width="0.8" opacity="0.5"/>
<line x1="150.0" y1="128.0" x2="104.15275032118711" y2="191.1033255612459" stroke="#8c959f" stroke-width="0.8" opacity="0.5"/>
<line x1="150.0" y1="128.0" x2="75.81759172897802" y2="103.8966744387541" stroke="#8c959f" stroke-width="0.8" opacity="0.5"/>
<polygon points="150.00,75.61 208.73,108.92 159.17,140.62 116.99,173.43 106.73,113.94" fill="#0969da22" stroke="#0969da" stroke-width="2.0"/>
<circle cx="150.0" cy="75.61" r="3.5" fill="#0969da"/>
<circle cx="208.72773988122572" cy="108.918200597347" r="3.5" fill="#0969da"/>
<circle cx="159.16944993576257" cy="140.62066511224918" r="3.5" fill="#0969da"/>
<circle cx="116.98998023125472" cy="173.43439440409705" r="3.5" fill="#0969da"/>
<circle cx="106.72692850857051" cy="113.9397267559399" r="3.5" fill="#0969da"/>
<text x="150.0" y="50.0" font-family="-apple-system, BlinkMacSystemFont, 'Segoe UI', sans-serif" font-size="9" font-weight="normal" fill="#656d76" text-anchor="middle">Commits</text>
<text x="150.0" y="61.0" font-family="-apple-system, BlinkMacSystemFont, 'Segoe UI', sans-serif" font-size="9" font-weight="600" fill="#0969da" text-anchor="middle">403</text>
<text x="247.49719949915414" y="103.57043651750485" font-family="-apple-system, BlinkMacSystemFont, 'Segoe UI', sans-serif" font-size="9" font-weight="normal" fill="#656d76" text-anchor="start">PRs</text>
<text x="247.49719949915414" y="114.57043651750485" font-family="-apple-system, BlinkMacSystemFont, 'Segoe UI', sans-serif" font-size="9" font-weight="600" fill="#0969da" text-anchor="start">95</text>
<text x="210.07624321090753" y="216.42956348249515" font-family="-apple-system, BlinkMacSystemFont, 'Segoe UI', sans-serif" font-size="9" font-weight="normal" fill="#656d76" text-anchor="start">Reviews</text>
<text x="210.07624321090753" y="227.42956348249515" font-family="-apple-system, BlinkMacSystemFont, 'Segoe UI', sans-serif" font-size="9" font-weight="600" fill="#0969da" text-anchor="start">3</text>
<text x="89.92375678909248" y="216.42956348249515" font-family="-apple-system, BlinkMacSystemFont, 'Segoe UI', sans-serif" font-size="9" font-weight="normal" fill="#656d76" text-anchor="end">Issues</text>
<text x="89.92375678909248" y="227.42956348249515" font-family="-apple-system, BlinkMacSystemFont, 'Segoe UI', sans-serif" font-size="9" font-weight="600" fill="#0969da" text-anchor="end">72</text>
<text x="52.502800500845865" y="103.57043651750485" font-family="-apple-system, BlinkMacSystemFont, 'Segoe UI', sans-serif" font-size="9" font-weight="normal" fill="#656d76" text-anchor="end">Repos</text>
<text x="52.502800500845865" y="114.57043651750485" font-family="-apple-system, BlinkMacSystemFont, 'Segoe UI', sans-serif" font-size="9" font-weight="600" fill="#0969da" text-anchor="end">7</text>
<rect x="285" y="44" width="190" height="26" rx="3" fill="#eaeef2"/>
<text x="295" y="61" font-family="-apple-system, BlinkMacSystemFont, 'Segoe UI', sans-serif" font-size="10" font-weight="normal" fill="#656d76" text-anchor="start">Commits</text>
<text x="465" y="61" font-family="-apple-system, BlinkMacSystemFont, 'Segoe UI', sans-serif" font-size="11" font-weight="700" fill="#0969da" text-anchor="end">403</text>
<rect x="285" y="72" width="190" height="26" rx="3" fill="#eaeef2"/>
<text x="295" y="89" font-family="-apple-system, BlinkMacSystemFont, 'Segoe UI', sans-serif" font-size="10" font-weight="normal" fill="#656d76" text-anchor="start">PRs</text>
<text x="465" y="89" font-family="-apple-system, BlinkMacSystemFont, 'Segoe UI', sans-serif" font-size="11" font-weight="700" fill="#1a7f37" text-anchor="end">95</text>
<rect x="285" y="100" width="190" height="26" rx="3" fill="#eaeef2"/>
<text x="295" y="117" font-family="-apple-system, BlinkMacSystemFont, 'Segoe UI', sans-serif" font-size="10" font-weight="normal" fill="#656d76" text-anchor="start">Reviews</text>
<text x="465" y="117" font-family="-apple-system, BlinkMacSystemFont, 'Segoe UI', sans-serif" font-size="11" font-weight="700" fill="#8250df" text-anchor="end">3</text>
<rect x="285" y="128" width="190" height="26" rx="3" fill="#eaeef2"/>
<text x="295" y="145" font-family="-apple-system, BlinkMacSystemFont, 'Segoe UI', sans-serif" font-size="10" font-weight="normal" fill="#656d76" text-anchor="start">Issues</text>
<text x="465" y="145" font-family="-apple-system, BlinkMacSystemFont, 'Segoe UI', sans-serif" font-size="11" font-weight="700" fill="#d1242f" text-anchor="end">72</text>
<rect x="285" y="156" width="190" height="26" rx="3" fill="#eaeef2"/>
<text x="295" y="173" font-family="-apple-system, BlinkMacSystemFont, 'Segoe UI', sans-serif" font-size="10" font-weight="normal" fill="#656d76" text-anchor="start">Repos</text>
<text x="465" y="173" font-family="-apple-system, BlinkMacSystemFont, 'Segoe UI', sans-serif" font-size="11" font-weight="700" fill="#0550ae" text-anchor="end">7</text>
</svg>
