<svg xmlns="http://www.w3.org/2000/svg" width="495" height="195" viewBox="0 0 495 195">
<rect width="495" height="195" rx="6" fill="#f6f8fa" stroke="#d0d7de" stroke-width="1"/>
<text x="20" y="35" font-family="-apple-system, BlinkMacSystemFont, 'Segoe UI', sans-serif" font-size="15" font-weight="600" fill="#24292f" text-anchor="start">Activity Radar</text>
<polygon points="150.00,97.00 167.12,109.44 160.58,129.56 139.42,129.56 132.88,109.44" fill="none" stroke="#8c959f" stroke-width="0.8" opacity="0.5"/>
<polygon points="150.00,79.00 184.24,103.88 171.16,144.12 128.84,144.12 115.76,103.88" fill="none" stroke="#8c959f" stroke-width="0.8" opacity="0.5"/>
<polygon points="150.00,61.00 201.36,98.31 181.74,158.69 118.26,158.69 98.64,98.31" fill="none" stroke="#8c959f" stroke-width="0.8" opacity="0.5"/>
<polygon points="150.00,43.00 218.48,92.75 192.32,173.25 107.68,173.25 81.52,92.75" fill="none" stroke="#8c959f" stroke-width="0.8" opacity="0.5"/>
<line x1="150.0" y1="115.0" x2="150.0" y2="43.0" stroke="#8c959f" stroke-width="0.8" opacity="0.5"/>
<line x1="150.0" y1="115.0" x2="218.47606917325106" y2="92.75077640500379" stroke="#8c959f" stroke-width="0.8" opacity="0.5"/>
<line x1="150.0" y1="115.0" x2="192.32053816505805" y2="173.2492235949962" stroke="#8c959f" stroke-width="0.8" opacity="0.5"/>
<line x1="150.0" y1="115.0" x2="107.67946183494195" y2="173.2492235949962" stroke="#8c959f" stroke-width="0.8" opacity="0.5"/>
<line x1="150.0" y1="115.0" x2="81.52393082674894" y2="92.75077640500379" stroke="#8c959f" stroke-width="0.8" opacity="0.5"/>
<polygon points="150.00,112.12 182.53,104.43 150.63,115.87 119.53,156.94 140.41,111.89" fill="#0969da22" stroke="#0969da" stroke-width="2.0"/>
<circle cx="150.0" cy="112.12" r="3.5" fill="#0969da"/>
<circle cx="182.52613285729424" cy="104.4316187923768" r="3.5" fill="#0969da"/>
<circle cx="150.63480807247586" cy="115.87373835392495" r="3.5" fill="#0969da"/>
<circle cx="119.5292125211582" cy="156.93944098839728" r="3.5" fill="#0969da"/>
<circle cx="140.41335031574485" cy="111.88510869670053" r="3.5" fill="#0969da"/>
<text x="150.0" y="39.0" font-family="-apple-system, BlinkMacSystemFont, 'Segoe UI', sans-serif" font-size="9" font-weight="normal" fill="#656d76" text-anchor="middle">Commits</text>
<text x="150.0" y="50.0" font-family="-apple-system, BlinkMacSystemFont, 'Segoe UI', sans-serif" font-size="9" font-weight="600" fill="#0969da" text-anchor="middle">400</text>
<text x="243.69297343397352" y="91.80650449500463" font-family="-apple-system, BlinkMacSystemFont, 'Segoe UI', sans-serif" font-size="9" font-weight="normal" fill="#656d76" text-anchor="start">PRs</text>
<text x="243.69297343397352" y="102.80650449500463" font-family="-apple-system, BlinkMacSystemFont, 'Segoe UI', sans-serif" font-size="9" font-weight="600" fill="#0969da" text-anchor="start">95</text>
<text x="207.72510220173763" y="200.19349550499538" font-family="-apple-system, BlinkMacSystemFont, 'Segoe UI', sans-serif" font-size="9" font-weight="normal" fill="#656d76" text-anchor="start">Reviews</text>
<text x="207.72510220173763" y="211.19349550499538" font-family="-apple-system, BlinkMacSystemFont, 'Segoe UI', sans-serif" font-size="9" font-weight="600" fill="#0969da" text-anchor="start">3</text>
<text x="92.27489779826237" y="200.19349550499538" font-family="-apple-system, BlinkMacSystemFont, 'Segoe UI', sans-serif" font-size="9" font-weight="normal" fill="#656d76" text-anchor="end">Issues</text>
<text x="92.27489779826237" y="211.19349550499538" font-family="-apple-system, BlinkMacSystemFont, 'Segoe UI', sans-serif" font-size="9" font-weight="600" fill="#0969da" text-anchor="end">72</text>
<text x="56.30702656602648" y="91.80650449500465" font-family="-apple-system, BlinkMacSystemFont, 'Segoe UI', sans-serif" font-size="9" font-weight="normal" fill="#656d76" text-anchor="end">Repos</text>
<text x="56.30702656602648" y="102.80650449500465" font-family="-apple-system, BlinkMacSystemFont, 'Segoe UI', sans-serif" font-size="9" font-weight="600" fill="#0969da" text-anchor="end">7</text>
<rect x="285" y="50" width="190" height="22" rx="3" fill="#eaeef2"/>
<text x="295" y="64" font-family="-apple-system, BlinkMacSystemFont, 'Segoe UI', sans-serif" font-size="10" font-weight="normal" fill="#656d76" text-anchor="start">Commits</text>
<text x="465" y="64" font-family="-apple-system, BlinkMacSystemFont, 'Segoe UI', sans-serif" font-size="11" font-weight="700" fill="#0969da" text-anchor="end">400</text>
<rect x="285" y="74" width="190" height="22" rx="3" fill="#eaeef2"/>
<text x="295" y="88" font-family="-apple-system, BlinkMacSystemFont, 'Segoe UI', sans-serif" font-size="10" font-weight="normal" fill="#656d76" text-anchor="start">PRs</text>
<text x="465" y="88" font-family="-apple-system, BlinkMacSystemFont, 'Segoe UI', sans-serif" font-size="11" font-weight="700" fill="#1a7f37" text-anchor="end">95</text>
<rect x="285" y="98" width="190" height="22" rx="3" fill="#eaeef2"/>
<text x="295" y="112" font-family="-apple-system, BlinkMacSystemFont, 'Segoe UI', sans-serif" font-size="10" font-weight="normal" fill="#656d76" text-anchor="start">Reviews</text>
<text x="465" y="112" font-family="-apple-system, BlinkMacSystemFont, 'Segoe UI', sans-serif" font-size="11" font-weight="700" fill="#8250df" text-anchor="end">3</text>
<rect x="285" y="122" width="190" height="22" rx="3" fill="#eaeef2"/>
<text x="295" y="136" font-family="-apple-system, BlinkMacSystemFont, 'Segoe UI', sans-serif" font-size="10" font-weight="normal" fill="#656d76" text-anchor="start">Issues</text>
<text x="465" y="136" font-family="-apple-system, BlinkMacSystemFont, 'Segoe UI', sans-serif" font-size="11" font-weight="700" fill="#d1242f" text-anchor="end">72</text>
<rect x="285" y="146" width="190" height="22" rx="3" fill="#eaeef2"/>
<text x="295" y="160" font-family="-apple-system, BlinkMacSystemFont, 'Segoe UI', sans-serif" font-size="10" font-weight="normal" fill="#656d76" text-anchor="start">Repos</text>
<text x="465" y="160" font-family="-apple-system, BlinkMacSystemFont, 'Segoe UI', sans-serif" font-size="11" font-weight="700" fill="#0550ae" text-anchor="end">7</text>
</svg>
